# xmcd CD database file
#
# Track frame offsets:
#	183
#	46808
#	77995
#	159820
#	165258
#	225233
#
# Disc length: 3147 seconds
#
# Revision: 0
# Processed by: cddbd v1.4PL0 Copyright (c) Steve Scherf et al.
# Submitted via: CDex 1.51
#
DISCID=2e0c4906
DTITLE=Sonny Rollins - Live Mid 60's
DYEAR=1992
DGENRE=Jazz
TTITLE0=Without a Song
TTITLE1=52nd Street Theme
TTITLE2=Valse Hot
TTITLE3=Stars Spangled Banner
TTITLE4=Oleo
TTITLE5=St Thomas
EXTD=YEAR: 1992
EXTT0=
EXTT1=
EXTT2=
EXTT3=
EXTT4=
EXTT5=
PLAYORDER=
